<?xml version="1.0" encoding="UTF-8"?>
<svg xmlns="http://www.w3.org/2000/svg" viewBox="0 0 1506.0872 573.5745">
  <defs>
    <style>
      .cls-1 {
        fill: #ca8cff;
      }

      .cls-2 {
        fill: #8b8cff;
      }

      .cls-3 {
        fill: #fff;
      }

      .cls-4 {
        fill: #220036;
      }
    </style>
  </defs>
  <g id="Layer_2">
    <path d="M306.9084,376.0027c12.2287-7.3662,22.9738-16.9026,32.1033-27.8778,23.6503-28.4315,91.7838-81.7425,272.4963-87.8135,77.9796-2.6197,124.6005,1.836,152.1315,8.909,36.0678,9.2662,74.3738,2.5469,105.4855-17.9178,58.4257-38.4313,143.3471-76.9661,217.8578-43.907,59.1479,26.2429,102.6211,74.21,132.3552,118.4519,54.9662,81.7853,5.4301,192.9152-92.2031,206.252-48.6369,6.6438-113.787,5.542-201.0565-9.3047-345.3134-58.7463-312.5158,125.816-537.1789,14.0548-170.6354-84.8846-117.4431-139.4918-81.9912-160.8469Z"/>
    <path class="cls-2" d="M288.7773,357.8716c12.2287-7.3662,22.9738-16.9026,32.1033-27.8778,23.6503-28.4315,91.7838-81.7425,272.4963-87.8135,77.9796-2.6197,124.6005,1.836,152.1315,8.909,36.0678,9.2662,74.3738,2.5469,105.4855-17.9178,58.4257-38.4313,143.3471-76.9661,217.8578-43.907,59.1479,26.2429,102.6211,74.21,132.3552,118.4519,54.9662,81.7853,5.4301,192.9152-92.2031,206.252-48.6369,6.6438-113.787,5.542-201.0565-9.3047-345.3134-58.7463-312.5158,125.816-537.1789,14.0548-170.6354-84.8846-117.4431-139.4918-81.9912-160.8469Z"/>
    <g>
      <path class="cls-3" d="M424.7645,339.3793h42.9968c.6548,5.5118,1.0186,10.9906,1.1492,16.4478-4.2893-.0017-8.5872-.0029-12.8936-.0021-.1074,38.2405-9.0874,75.6892-12.0732,115.3912-6.3936-.0001-12.7856-.0001-19.1792,0,5.4335-39.1548,14.7275-77.1287,18.303-115.3868-8.6519.0056-17.3435.0149-26.0754.0294,1.363-2.7482,2.7004-5.495,4.0004-8.2406,2.271-4.8079,3.4646-7.5498,3.7721-8.2389Z"/>
      <path class="cls-3" d="M477.5897,339.3793c4.8137,1.5524,9.6746,3.1049,14.5581,4.6569,2.6021,16.5194,1.7642,32.6422-.334,48.8114,6.1052-.6549,12.1829-1.3033,18.2334-1.9437,2.5598-14.6028,3.8689-29.1777,1.8643-44.1392,5.0273-2.4436,9.8779-4.9031,14.53-7.3854,13.083,44.5989-8.8315,84.6379-8.3364,131.8369-6.3933-.0001-12.7864-.0001-19.1794,0,.1975-11.7092,1.5686-23.0273,3.3428-34.1132-4.1985.032-8.405.0667-12.6204.1039-1.7339,11.0811-3.1309,22.3706-3.5088,34.0093-6.3931-.0001-12.7866-.0001-19.1799,0,1.4033-23.0327,5.9248-44.9568,9.302-66.637,6.3845-37.777,3.1594-59.6051,2.2883-65.2h-.96Z"/>
      <path class="cls-3" d="M586.0804,339.3793c3.251,8.5013,4.8926,16.7648,5.4448,24.8967-10.3826-.0461-20.8137-.0881-31.3035-.125.4814,8.119-.022,16.1322-1.0566,24.1304,10.1499,2.6893,20.1426,5.3785,30.0044,8.0709-.9475,5.3134-2.0696,10.6305-3.2109,15.9838-10.2913-.0164-20.6335-.0195-31.0374-.009-2.1919,10.75-4.521,21.6389-5.9124,32.8859,10.3909-.0355,20.7556-.0597,31.1011-.074-.9023,8.4344-1.1538,17.0909-.2317,26.0773-16.5154-.0001-33.031-.0001-49.5469,0-.9951-23.1886,3.9453-44.5319,7.4697-65.5327,7.1167-36.5363,1.0376-57.9677-.7214-63.5593,16.438-.9021,32.7524-1.8147,49.0007-2.7449Z"/>
      <path class="cls-3" d="M703.6324,339.3793c1.9663,5.0924,3.3174,10.0687,4.1812,14.955-3.7139-.0129-7.4302-.0269-11.1479-.0404,8.1199,40.1046-16.9607,74.2802-3.6274,116.9224-13.9849-.0001-27.9707-.0001-41.9553,0-2.009-9.0076-2.4822-17.6438-2.0493-26.0375,8.0906,2.817,16.3474,5.6581,24.8254,8.5245-3.3914-34.9382,13.4016-65.1106,5.532-99.4733-6.8159-.0254-13.6411-.051-20.4766-.077-.9465-4.8374-2.3796-9.7534-4.4221-14.7737h43.3813c3.3242-.0005,5.2466-.0005,5.7588,0Z"/>
      <path class="cls-3" d="M725.902,405.1813c8.4001-21.0757,16.5955-42.1096,12.2246-65.802,25.1248,47.3787-1.8528,84.6809,25.4768,131.8369-4.262-.0001-8.5247-.0001-12.7866,0-7.7654-14.7783-10.324-28.5774-10.8916-42.0072-5.5386,13.3862-9.2783,27.1646-8.2876,42.0072-6.3933-.0001-12.7864-.0001-19.1799,0-1.4805-6.0815-3.0615-29.5481,13.4443-66.0349Z"/>
      <path class="cls-3" d="M770.1832,409.5098c3.6526-19.797,8.4182-39.527,3.8342-61.3049,5.4807-2.8947,10.8386-5.8353,16.071-8.8256h32.2463c12.2505,47.9456-18.9658,85.4128,1.6812,131.701-3.2297-.3625-6.4529-.7251-9.6716-1.0881-15.2795-35.6454-.0027-66.0157,1.5356-100.062-1.2878-1.5167-2.6042-3.0402-3.9539-4.5704-1.9036,36.2505-21.5989,67.9124-6.9878,105.7198-4.0283-.0004-8.0566-.0004-12.085-.0007-15.3176-35.0219-1.0061-64.6989.8669-97.4979-1.7493-3.9866-3.6858-8.0154-5.8987-12.1021,1.8555,37.7338-18.7041,70.2552-2.0615,109.6-4.2417.0458-8.4849.0917-12.7275.1373-2.6221-5.6056-10.6641-27.3668-2.8494-61.7064Z"/>
      <path class="cls-3" d="M940.9987,365.2861c-10.178.9706-20.3406,1.9286-30.4873,2.8717-.8455,27.0426-7.1243,52.0311-2.5837,78.2316,10.7104.042,21.4756.0784,32.3.1086-.7136,8.1149-.5188,16.3199,1.106,24.7181-13.0195-.0001-26.04-.0001-39.0588,0-22.2571-42.4692-4.1453-79.1379-10.6067-122.9657,15.928-2.9393,31.8625-5.9125,47.835-8.8712,1.2222,8.873,1.5845,17.4812,1.4956,25.9069Z"/>
      <path class="cls-3" d="M949.9869,345.2834c3.8972-1.9644,7.7727-3.9336,11.6301-5.9042,4.5847,38.1271-4.1228,71.9677,2.092,107.1747,8.7334.0165,17.5088.0289,26.3313.0356-5.9185-35.2643.1118-69.537-3.8535-107.2103,4.3994,2.8983,8.7212,5.756,13.0073,8.5826,2.9602,42.6696-3.24,81.8534,9.908,123.2543-17.0491-.0001-34.0964-.0001-51.1458,0-9.0957-21.3894-10.0474-41.7358-9.2466-62.3201,2.5745-35.8108,2.3191-58.0308,1.2771-63.6127Z"/>
      <path class="cls-3" d="M1014.4415,339.3793h42.9976c.5432,5.4932,1.0857,10.9863,1.6296,16.4795-4.1523.0505-8.2983.0989-12.4375.1458,3.2268,38.6943,5.1726,76.7507,11.0591,115.2117-6.3926-.0001-12.7876-.0001-19.1799,0-6.3792-38.4689-3.4343-76.1063-4.2825-115.0784-8.2571.0851-16.4919.1625-24.7068.2323.8862-2.8151,1.7397-5.6385,2.5608-8.4706,1.4336-4.9574,2.167-7.8085,2.3596-8.5203Z"/>
    </g>
    <circle class="cls-1" cx="1177.7772" cy="292.8184" r="48"/>
    <rect class="cls-1" x="1096.3693" y="279.9228" width="162.8158" height="25.791"/>
    <rect class="cls-1" x="1096.3693" y="279.9228" width="162.8158" height="25.791" transform="translate(1470.5955 -884.9588) rotate(90)"/>
    <rect class="cls-1" x="1096.3693" y="279.9228" width="162.8158" height="25.791" transform="translate(552.0168 -747.0497) rotate(45)"/>
    <rect class="cls-1" x="1096.3693" y="279.9228" width="162.8158" height="25.791" transform="translate(2156.9596 -424.1916) rotate(129.8246)"/>
    <circle class="cls-1" cx="291.4828" cy="339.3788" r="48"/>
    <rect class="cls-1" x="210.075" y="326.4833" width="162.8158" height="25.791"/>
    <rect class="cls-1" x="210.075" y="326.4833" width="162.8158" height="25.791" transform="translate(630.8617 47.896) rotate(90)"/>
    <rect class="cls-1" x="210.075" y="326.4833" width="162.8158" height="25.791" transform="translate(325.3504 -106.7077) rotate(45)"/>
    <rect class="cls-1" x="210.075" y="326.4833" width="162.8158" height="25.791" transform="translate(738.8058 332.8693) rotate(129.8246)"/>
  </g>
  <g id="Layer_27">
    <g>
      <path class="cls-4" d="M41.684,48.2513c31.8468,12.1632,63.7745,22.8832,95.7831,32.3494-11.1624,74.9343-22.4501,149.8049-33.8634,224.6099-30.2483-4.6625-60.4965-10.4141-90.7448-17.4044,4.8042-39.9258,9.6083-79.8514,14.4125-119.7772,8.4071-69.868,13.2113-109.7948,14.4126-119.7776ZM95.2551,242.6207c4.3191-40.144,8.6381-80.2882,12.9572-120.4323-15.8456-7.6163-31.6505-15.5521-47.4153-23.8301-5.8031,50.0028-11.6062,100.0055-17.4093,150.0083,8.6647-.7683,17.3192-1.6335,25.9637-2.5924,15.1248-1.6876,23.745-2.8788,25.9037-3.1534h0Z"/>
      <path class="cls-4" d="M147.709,156.3472c16.7122,2.0981,33.4246,3.8704,50.1368,5.3431-4.2552,51.1818-8.4991,102.3673-12.7321,153.5564-17.5864-1.6434-35.1727-3.6095-52.759-5.9277,3.5667-25.3624,7.1207-50.7308,10.6628-76.105,6.2622-44.3959,9.8623-69.7748,10.8577-76.1075-2.0554-.2482-4.1108-.5013-6.1661-.7594h-.0001Z"/>
      <path class="cls-4" d="M296.9819,85.8276c8.1226.1927,16.2451.3254,24.3676.4014l-3.2783,45.2538c-20.0924-5.2587-40.1348-10.8616-60.1271-16.8549-1.6572,20.0548-3.3145,40.1096-4.9716,60.1644,20.6068,1.0413,41.2137,1.6729,61.8204,1.9442-7.7639,50.2277-15.6277,100.4139-23.5918,150.5571-29.5504-.7793-59.1006-2.3018-88.6511-4.7065,1.5829-17.8271,3.1658-35.6542,4.7488-53.4814,20.2349,9.4773,40.548,18.5343,60.9395,27.2166,2.3657-30.1184,4.7313-60.2368,7.097-90.3553-20.7072-.7507-41.4142-1.8934-62.1213-3.4777,6.3372-39.8198,12.6207-79.6656,18.8503-119.5366,10.7878.7094,21.5757,1.2983,32.3636,1.7743,19.0375.824,29.8885,1.0222,32.554,1.1005v.0002Z"/>
      <path class="cls-4" d="M433.9899,121.5897c-20.5206,2.6202-41.0579,4.9723-61.6116,7.0061-3.1257,49.2104-6.2515,98.4207-9.3772,147.6311,20.9365-.2458,41.8729-.8135,62.8094-1.6523-5.0052,15.4661-10.0406,30.9148-15.1066,46.3456-25.7672.8494-51.5342,1.2755-77.3013,1.1862,1.4111-76.2531,2.9573-152.4825,4.6385-228.6875,32.8818-5.0811,65.6827-11.0577,98.4027-17.7244-.8179,15.2983-1.6359,30.5969-2.4539,45.8953h-.0002Z"/>
      <path class="cls-4" d="M455.9124,74.675c32.1909,3.2747,64.4626,5.9327,96.8152,8.1702-2.6344,76.7714-5.2688,153.5428-7.9033,230.3142-33.7411,2.6711-67.4819,4.8914-101.223,6.4534,2.0518-40.8229,4.1038-81.6458,6.1555-122.4688,3.5905-71.4379,5.6425-112.262,6.1555-122.4691h.0001ZM521.2814,269.0446c1.9584-51.1454,3.9167-102.2909,5.8752-153.4364-16.345,1.3109-32.6899,2.5002-49.0349,3.5425l-7.088,153.2084c8.3746-.4814,16.7491-1.0005,25.1237-1.554,14.6539-.9736,23.0289-1.6104,25.1241-1.7605h-.0001Z"/>
      <path class="cls-4" d="M568.8961,188.604c1.2758-40.9669,2.5513-81.9338,3.827-122.9008,8.1121-.765,16.2239-1.5547,24.3358-2.3658,14.2743,70.1166,29.1145,140.2386,44.5206,210.3839-7.0114-70.9866-13.7397-141.9456-20.1852-212.8787,16.2236-1.7019,32.4474-3.4773,48.671-5.3011-1.2578,82.1378-2.5154,164.2756-3.7732,246.4133-16.8704,1.7271-33.7408,3.4036-50.6115,5.0038-7.2448-50.4741-14.2875-100.9354-21.1281-151.3859-1.3925,51.2419-2.785,102.4838-4.1774,153.7256-8.4353.7587-16.8706,1.4951-25.3059,2.2058.3187-10.2396,1.5944-51.2075,3.827-122.9003h-.0004Z"/>
      <path class="cls-4" d="M701.7009,51.9305c28.3921-3.2837,56.7837-6.6664,85.1758-10.0142.0369,10.2955.0735,20.5909.1104,30.8866-8.1528.9508-16.3059,1.9044-24.4587,2.8577-.0251,72.0273-.0505,144.0549-.0757,216.0822-12.6523,1.3687-25.3047,2.7368-37.957,4.0933,4.667-72.4183,9.1924-144.8584,13.5764-217.3198-16.3042,1.899-32.6086,3.7845-48.9131,5.6313,2.1006-5.3668,4.1958-10.735,6.2864-16.1044,3.6555-9.3958,5.7346-14.767,6.2559-16.1127h-.0002Z"/>
      <path class="cls-4" d="M904.0337,44.1705c.8081,36.1353,1.6162,72.2704,2.4241,108.4056-16.4319,6.8264-32.9041,13.7191-49.4167,20.6531,17.1125,34.314,34.5083,68.7173,52.187,103.2389-12.6533,1.2102-25.3064,2.4622-37.9595,3.7448-8.7756-19.7751-17.4702-39.5245-26.084-59.2516-3.9175,21.0637-7.8757,42.124-11.874,63.1805-8.4353.8887-16.8704,1.7863-25.3054,2.6892-.5532-82.4011-1.1064-164.8022-1.6599-247.2032,16.2407.675,32.5017,1.3744,48.7832,2.123,28.4934,1.3145,44.8257,2.209,48.9055,2.4196h-.0002ZM832.571,214.5762c10.0391-1.0853,20.0781-2.158,30.1174-3.2126.4595,8.6676.9204,17.3354,1.3826,26.0034-10.4075,1.0811-20.8149,2.182-31.2224,3.2964-.0461-4.3479-.0925-8.6957-.1387-13.0436-.0803-7.5676-.127-11.9148-.1387-13.0437h-.0002ZM864.771,132.6927c2.4231-18.0189,4.824-36.0397,7.2014-54.0626-11.4287,1.245-22.8579,2.5168-34.2866,3.807.2407,20.6154.4812,41.2307.7219,61.8459,4.3674-1.9333,8.7324-3.8646,13.094-5.793,7.6985-3.2604,12.1172-5.1888,13.2693-5.7972h0Z"/>
      <path class="cls-4" d="M923.156,26.6616c32.5791,1.8572,65.239,4.0519,97.9795,6.787,3.1868,77.6799,6.3733,155.3597,9.5601,233.0396-33.741,2.2174-67.4819,4.9802-101.2229,8.0807-1.053-41.3177-2.1057-82.6356-3.1582-123.9534-1.8428-72.304-2.8948-113.623-3.1582-123.9539h-.0002ZM1003.6592,221.6761c-1.9224-51.7499-3.8447-103.4998-5.7671-155.2498-16.3447,1.3324-32.6895,2.7844-49.0342,4.3307,1.5181,51.6804,3.0361,103.3608,4.5542,155.0411,8.3745-.7397,16.749-1.4552,25.1238-2.1433,14.6541-1.2009,23.0295-1.818,25.1233-1.979v.0002Z"/>
      <path class="cls-4" d="M1040.5767,30.347c14.7224-5.6372,29.4114-11.1617,44.0676-16.5549-3.3267,67.811-6.873,135.6047-10.6389,203.3817,25.1235-1.3004,50.2476-2.2441,75.3716-2.7441.9282,15.5966,1.8567,31.1932,2.7852,46.7898-33.741.6101-67.4819,2.0144-101.2229,4.0056-1.7288-39.1866-3.458-78.3735-5.1868-117.5602-3.022-68.4963-4.7468-107.6024-5.176-117.3177h.0002Z"/>
      <path class="cls-4" d="M1157.6467,25.1183c14.6357-4.9009,29.2388-9.6401,43.8083-14.1996-2.0652,67.7218-4.3501,135.424-6.855,203.1082,25.1238.0634,50.2478.6224,75.3718,1.7642,1.2195,15.674,2.4387,31.3477,3.6582,47.0214-33.741-1.5948-67.4819-2.1464-101.2231-1.8623-2.4624-39.3459-4.9253-78.6918-7.3877-118.0377-4.304-68.7745-6.7629-108.0396-7.3726-117.7942h0Z"/>
      <path class="cls-4" d="M1371.6892,21.1469c1.5127,15.7736,3.0249,31.547,4.5371,47.3204-20.4309-2.5093-40.8618-4.5291-61.2927-6.108,1.3608,15.7189,2.7217,31.4379,4.0825,47.1567,21.0364,6.87,42.1228,14.2009,63.26,22.0455,1.0083,10.5155,2.0166,21.0311,3.0249,31.5466-20.7344-2.6254-41.468-4.754-62.2024-6.4354,1.8145,20.9586,3.6289,41.9174,5.4434,62.876,20.9363,1.7496,41.8723,3.9508,62.8088,6.6536,1.5122,15.7734,3.0249,31.5466,4.5371,47.3199-32.6863-4.2794-65.3728-7.3447-98.0596-9.3844-4.1238-40.995-8.2329-81.9847-12.3274-122.9691-7.1069-71.818-11.1104-112.871-12.0684-123.1735,32.7791-.0811,65.5315.9011,98.2571,3.1515h-.0005Z"/>
      <path class="cls-4" d="M1390.3982,23.5475c32.9673,9.6718,66.0149,20.658,99.1438,33.1689,5.6406,78.7449,11.1555,157.4451,16.5452,236.1019-30.2478-6.7062-60.4961-12.191-90.7444-16.6041-4.1572-42.1111-8.3147-84.222-12.4724-126.3333-7.2759-73.6921-11.4326-115.8044-12.4724-126.3336h.0002ZM1484.2949,226.1489c-4.6423-42.3191-9.2852-84.6381-13.9275-126.9572-16.9656-8.5862-33.8904-16.7921-50.7749-24.6456,5.3987,52.7216,10.7979,105.443,16.1965,158.1646,8.1045-1.261,16.1992-2.4402,24.2832-3.5348,14.144-1.9023,22.2058-2.7843,24.2224-3.0269h.0002Z"/>
      <path class="cls-4" d="M170.3647,85.3894l-1.7,17.3903c-7.0551-.785-14.1104-1.6271-21.1654-2.5283-.7957,7.8494-1.5912,15.6987-2.3868,23.5481,7.0824.9119,14.1648,1.7643,21.2472,2.5594-.6189,6.3314-1.2379,12.6628-1.8568,18.9943,6.6935.757,13.3868,1.4626,20.0804,2.119.5981-6.339,1.1964-12.678,1.7946-19.017,7.1841.6987,14.3682,1.3405,21.5522,1.9272.7148-7.8788,1.4298-15.7574,2.1448-23.6364-7.0551-.5692-14.1102-1.1915-21.1653-1.869.5186-5.4987,1.0372-10.9973,1.5559-16.496-6.7013-.9467-13.4017-1.9434-20.101-2.9918h.0001Z"/>
    </g>
    <g>
      <path class="cls-3" d="M28.8251,37.3326c31.8468,12.1632,63.7745,22.8832,95.7831,32.3494-11.1624,74.9343-22.45,149.8049-33.8634,224.6099-30.2483-4.6625-60.4965-10.4141-90.7448-17.4044,4.8042-39.9257,9.6083-79.8514,14.4125-119.7772,8.407-69.8678,13.2114-109.7949,14.4126-119.7776ZM82.3962,231.702c4.319-40.144,8.6382-80.2882,12.9572-120.4323-15.8456-7.6163-31.6506-15.5522-47.4153-23.8302-5.8031,50.0027-11.6062,100.0055-17.4093,150.0083,8.6647-.7683,17.3192-1.6335,25.9637-2.5924,15.1246-1.6875,23.7448-2.879,25.9037-3.1534Z"/>
      <path class="cls-3" d="M134.8501,145.4285c16.7122,2.0981,33.4246,3.8704,50.1368,5.3431-4.2552,51.1818-8.4993,102.3673-12.7321,153.5564-17.5863-1.6434-35.1727-3.6095-52.759-5.9277,3.5665-25.3625,7.1208-50.7308,10.6628-76.1049,6.2622-44.3959,9.8623-69.7745,10.8577-76.1075-2.0554-.2483-4.1108-.5013-6.1663-.7594Z"/>
      <path class="cls-3" d="M284.123,74.9089c8.1226.1927,16.245.3254,24.3676.4014l-3.2783,45.2538c-20.0924-5.2587-40.1348-10.8616-60.1271-16.8549-1.6572,20.0548-3.3145,40.1096-4.9716,60.1644,20.6068,1.0413,41.2137,1.6729,61.8204,1.9442-7.7639,50.2277-15.6277,100.4139-23.5918,150.5571-29.5504-.7794-59.1007-2.3018-88.651-4.7065,1.5829-17.8271,3.1659-35.6542,4.7488-53.4813,20.2349,9.4774,40.548,18.5343,60.9393,27.2166,2.3657-30.1184,4.7314-60.2368,7.097-90.3552-20.7072-.7509-41.4142-1.8936-62.1213-3.4777,6.3372-39.8198,12.6207-79.6655,18.8503-119.5366,10.7878.7094,21.5757,1.2983,32.3636,1.7743,19.0378.8241,29.8887,1.0222,32.554,1.1005Z"/>
      <path class="cls-3" d="M421.1309,110.671c-20.5206,2.6202-41.0579,4.9723-61.6116,7.0061-3.1257,49.2104-6.2515,98.4207-9.3773,147.6311,20.9365-.2458,41.8729-.8135,62.8094-1.6523-5.0052,15.4661-10.0408,30.9148-15.1066,46.3456-25.7671.8494-51.5342,1.2756-77.3013,1.1862,1.4113-76.2531,2.9574-152.4825,4.6385-228.6874,32.8817-5.0811,65.6826-11.0577,98.4026-17.7244-.8179,15.2983-1.6359,30.5969-2.4539,45.8953h0Z"/>
      <path class="cls-3" d="M443.0535,63.7562c32.1909,3.2747,64.4626,5.9327,96.8152,8.1702-2.6345,76.7714-5.2689,153.5428-7.9033,230.3142-33.741,2.671-67.4821,4.8914-101.223,6.4534,2.0518-40.8229,4.1038-81.6458,6.1555-122.4688,3.5903-71.4379,5.6426-112.2621,6.1555-122.4691h.0001ZM508.4226,258.1259c1.9584-51.1455,3.9167-102.2909,5.8752-153.4364-16.345,1.311-32.6899,2.5002-49.0349,3.5425l-7.088,153.2084c8.3745-.4814,16.749-1.0005,25.1235-1.554,14.6543-.9734,23.0292-1.6101,25.1243-1.7605h-.0001Z"/>
      <path class="cls-3" d="M556.0372,177.6853c1.2758-40.9669,2.5513-81.9338,3.827-122.9008,8.1121-.7651,16.2239-1.5547,24.3358-2.3658,14.2743,70.1166,29.1145,140.2386,44.5206,210.3839-7.0115-70.9865-13.7399-141.9456-20.1854-212.8787,16.2238-1.7019,32.4473-3.4773,48.671-5.3011-1.2578,82.1378-2.5156,164.2756-3.7733,246.4133-16.8705,1.7271-33.741,3.4036-50.6115,5.0038-7.2448-50.474-14.2876-100.9354-21.1281-151.3857-1.3925,51.2419-2.7849,102.4836-4.1774,153.7256-8.4352.7587-16.8705,1.495-25.306,2.2058.3188-10.2396,1.5947-51.2075,3.827-122.9003h.0001Z"/>
      <path class="cls-3" d="M688.8423,41.0118c28.3921-3.2837,56.7837-6.6664,85.1758-10.0142.0366,10.2955.0735,20.5909.1104,30.8866-8.1531.9508-16.3059,1.9044-24.4587,2.8577-.0251,72.0273-.0505,144.0548-.0757,216.0822-12.6523,1.3687-25.3047,2.7368-37.957,4.0933,4.667-72.4183,9.1924-144.8584,13.5764-217.3197-16.3044,1.899-32.6086,3.7845-48.9131,5.6313,2.1006-5.3668,4.196-10.735,6.2864-16.1044,3.6553-9.3956,5.7346-14.7671,6.2559-16.1127h-.0002Z"/>
      <path class="cls-3" d="M891.1748,33.2518c.8081,36.1353,1.6157,72.2704,2.4241,108.4056-16.4319,6.8264-32.9041,13.7191-49.4167,20.6531,17.1128,34.314,34.5083,68.7174,52.187,103.2389-12.6531,1.2103-25.3062,2.4622-37.9592,3.7448-8.7754-19.7751-17.4702-39.5244-26.084-59.2515-3.9175,21.0637-7.8755,42.124-11.8738,63.1805-8.4353.8885-16.8706,1.7863-25.3054,2.6892-.5535-82.4011-1.1067-164.8022-1.6599-247.2032,16.2407.675,32.5017,1.3744,48.783,2.123,28.4941,1.3145,44.8245,2.209,48.9055,2.4196h-.0005ZM819.7122,203.6575c10.0391-1.0853,20.0781-2.158,30.1172-3.2126.4597,8.6676.9204,17.3354,1.3828,26.0034-10.4077,1.0812-20.8152,2.1821-31.2227,3.2964-.0464-4.3479-.0925-8.6958-.1387-13.0437-.0803-7.5677-.1265-11.9149-.1387-13.0436h0ZM851.9121,121.774c2.4231-18.0189,4.8235-36.0398,7.2014-54.0626-11.429,1.245-22.8579,2.5168-34.2869,3.807.2407,20.6154.4812,41.2307.7219,61.8459,4.3677-1.9333,8.7322-3.8646,13.094-5.793,7.6995-3.2605,12.1167-5.1888,13.2693-5.7972h.0002Z"/>
      <path class="cls-3" d="M910.2971,15.7429c32.5789,1.8572,65.2388,4.0519,97.9795,6.787,3.1865,77.6799,6.3733,155.3597,9.5601,233.0396-33.741,2.2175-67.4819,4.9802-101.2229,8.0807-1.053-41.3177-2.1057-82.6356-3.1582-123.9534-1.842-72.304-2.8948-113.623-3.1582-123.9539h-.0002ZM990.8003,210.7573l-5.7671-155.2496c-16.3447,1.3325-32.6895,2.7844-49.0342,4.3307,1.5181,51.6804,3.0361,103.3608,4.5542,155.0411,8.3745-.7397,16.749-1.4552,25.1238-2.1433,14.6533-1.201,23.0298-1.818,25.1233-1.979h0Z"/>
      <path class="cls-3" d="M1027.7178,19.4283c14.7224-5.6372,29.4114-11.1617,44.0676-16.5549-3.3264,67.811-6.8728,135.6047-10.6389,203.3817,25.1238-1.3004,50.2478-2.2441,75.3716-2.7443.9282,15.5966,1.8567,31.1932,2.7852,46.7898-33.7407.6101-67.4817,2.0145-101.2229,4.0056-1.7288-39.1866-3.458-78.3735-5.1868-117.5602-3.0217-68.4963-4.7476-107.6024-5.176-117.3177h.0002Z"/>
      <path class="cls-3" d="M1144.7876,14.1996c14.6355-4.9009,29.2385-9.6401,43.8083-14.1996-2.0652,67.7218-4.3501,135.424-6.855,203.1082,25.1238.0634,50.2478.6224,75.3718,1.7642,1.2195,15.6738,2.439,31.3477,3.6582,47.0214-33.741-1.5948-67.4822-2.1464-101.2231-1.8623-2.4624-39.3459-4.9253-78.6918-7.3877-118.0377-4.3047-68.7745-6.762-108.0394-7.3726-117.7942h0Z"/>
      <path class="cls-3" d="M1358.8303,10.2281c1.5122,15.7736,3.0249,31.547,4.5371,47.3204-20.4309-2.5093-40.8618-4.5291-61.2927-6.108,1.3608,15.7189,2.7217,31.4377,4.0825,47.1567,21.0364,6.87,42.1228,14.2008,63.26,22.0455,1.0083,10.5155,2.0166,21.0311,3.0249,31.5466-20.7344-2.6254-41.4683-4.754-62.2024-6.4354,1.8145,20.9586,3.6289,41.9174,5.4434,62.876,20.9363,1.7496,41.8726,3.9508,62.8088,6.6536,1.5122,15.7733,3.0247,31.5466,4.5371,47.3199-32.6863-4.2795-65.3728-7.3447-98.0593-9.3843-4.1243-40.995-8.2332-81.9847-12.3276-122.9691-7.1074-71.818-11.1106-112.871-12.0684-123.1735,32.7793-.0811,65.5315.9011,98.2571,3.1515h-.0005Z"/>
      <path class="cls-3" d="M1377.5393,12.6288c32.9673,9.6718,66.0149,20.658,99.1438,33.1689,5.6406,78.7449,11.1558,157.4451,16.5452,236.1019-30.2483-6.7062-60.4966-12.191-90.7444-16.604-4.1575-42.1111-8.3149-84.222-12.4724-126.3333-7.2754-73.6921-11.4321-115.8044-12.4724-126.3336h.0002ZM1471.4363,215.2302c-4.6423-42.319-9.2849-84.6381-13.9275-126.9572-16.9656-8.5862-33.8906-16.7922-50.7751-24.6456,5.3987,52.7216,10.7979,105.443,16.1965,158.1646,8.1045-1.261,16.199-2.4402,24.2832-3.5348,14.145-1.9023,22.2051-2.7845,24.2227-3.0269h.0002Z"/>
      <path class="cls-3" d="M157.5059,74.4707l-1.7,17.3903c-7.0552-.785-14.1102-1.6271-21.1654-2.5284-.7957,7.8494-1.5912,15.6987-2.3868,23.5481,7.0825.9119,14.1648,1.7643,21.2473,2.5594-.6189,6.3314-1.2379,12.6628-1.8568,18.9943,6.6935.7568,13.3868,1.4626,20.0804,2.119.5983-6.339,1.1964-12.678,1.7946-19.017,7.1841.6987,14.3682,1.3405,21.5522,1.9272.7148-7.8788,1.4298-15.7574,2.1448-23.6364-7.0551-.5691-14.1102-1.1915-21.1653-1.869.5186-5.4987,1.0374-10.9973,1.5559-16.496-6.7013-.9467-13.4017-1.9434-20.101-2.9917h0Z"/>
    </g>
  </g>
</svg>