<?xml version="1.0" encoding="UTF-8"?>
<svg id="Layer_1" data-name="Layer 1" xmlns="http://www.w3.org/2000/svg" viewBox="0 0 989 983.8">
  <defs>
    <style>
      .cls-1 {
        fill: #000;
      }

      .cls-1, .cls-2, .cls-3, .cls-4 {
        stroke-width: 0px;
      }

      .cls-2 {
        fill: #f200f1;
      }

      .cls-3 {
        fill: #f0f200;
      }

      .cls-4 {
        fill: #00efef;
      }
    </style>
  </defs>
  <path id="path3" class="cls-1" d="M282.3,124.1l-166.1,5.5,7.9,153.4,171.3-11.7,15.4,182.6-182.7-53.5s-.63,93-.63,93.1h224.31s-21.47-264-21.17-264.1c0,0-178.9-5.9-179.1-6-.5-.5-8.6-68.8-8.6-68.8l155.4,8.2c0-.2,23.5-38.7,23.5-38.7h-39.5Z"/>
  <path id="path4" class="cls-1" d="M371.79,493.5l-14.39-372.2,43.62,3.1s-14.36,139.1-13.03,135.3c1.33-3.7-1.6-8.1,1.6-3.5,3.28,4.6,20.21,242.38,20.21,242.38l-38.01-5.08h0Z"/>
  <path id="path5" class="cls-1" d="M542,132.8l14.4,360.7,43.85-4.23-25.35-365.27-32.9,8.7h0v.1Z"/>
  <path id="path6" class="cls-1" d="M612.3,123l21.27,364.81,248.63-5.01-5.8-60.1-210.5,22.4-23.3-319.4-30.3-2.7h0Z"/>
  <path id="path7" class="cls-1" d="M760.9,123c0,.2-83.3,267.7-83.3,267.7l60.4-.6,21.9-109.2,39.6-3c-.3,3.4,36.4,108.3,36.4,108.3l46.2-18.27s-121.3-244.83-121.3-245.03h0l.1.1Z"/>
  <path id="path7-8" class="cls-1" d="M892.9,705.9l-132.96,180.55,44.36,5.25,33.5-67.6s38.4,4.4,38.1,6.2c-.2,1.8-1.4,57.9-1.4,57.9h27.6s-9.3-182.2-9.2-182.3h0Z"/>
  <path id="path8" class="cls-1" d="M127.47,524.85l14.33,190.05,120,12.5.5,127.1-107-4.8-.3,39.5,143.22-3.55-1.52-196.75-111.7-31-1.7-80.5,110.5-8.3-3.72-42.3-162.57-3.9s-.04,1.95-.04,1.95Z"/>
  <path id="path9" class="cls-1" d="M314.2,626.6l10,262.3,48.6,6.5-6.8-137.6,153.3,124.1-9.3-90.5-119.9-79.2,106.35-183.49-77.57-1.91-53.68,147.9s-3.24-138.36-3.54-147.9c-.2-.2-47.46-4.1-47.46-4.1v103.9h0Z"/>
  <path id="path11" class="cls-1" d="M522,523.8l15.83,361.23,134.67,10.27,22-334.1-48.2-14.7-5.9,313.7-73.2-6,16.2-331.6-61.4,1.1h0v.1Z"/>
  <path id="path12" class="cls-1" d="M524.8,574l169.7-12.8,4.2-44.9-176.7,7.4,2.9,50.3h-.1Z"/>
  <path id="path13" class="cls-1" d="M698.7,890.9l23.3-367.7,56.4-2.9-36.25,182.95.1-.58-6.77,178.69-36.68,9.44h0l-.1.1Z"/>
  <path id="path14" class="cls-1" d="M722.2,515l165.1-7.1,7.6,183.5-46.1-9.1,10.6-136.2-139,2.28,1.8-32.18h0v-1.2Z"/>
  <path id="path15" class="cls-1" d="M889.5,661.1l5.4,30.4-165.5,12.11,4.1-45.41s160.8,3,156,3h0v-.1Z"/>
  <path id="path16" class="cls-1" d="M357.4,121.3l162,2.8-10.8,50.5-150.11-25-1.09-28.3h0Z"/>
  <path id="path17" class="cls-1" d="M366.2,326.16l152.5-9.96.27,27.55-152.61,9.41s-.16-27.1-.16-27h0Z"/>
  <path id="path18" class="cls-1" d="M478.3,130.3l-4.8,213.1,45.1-.7.8-218.6-41.1,6.1h0v.1Z"/>
  <path id="path19" class="cls-1" d="M395.02,143.57l6.88,185.86-35.7-3.27-4.54-188.13,33.36,5.54h0Z"/>
  <path id="path20" class="cls-2" d="M145.3,100.9l513.2-.6L167,0l-21.6,100.8h-.1v.1Z"/>
  <path id="path21" class="cls-4" d="M96.5,379.1l-.6,460.1L0,818.8l96.4-439.7h.1Z"/>
  <path id="path22" class="cls-3" d="M839.7,918.2l-12.5,65.6-320.9-65.8,333.3.3h0l.1-.1Z"/>
  <path id="path23" class="cls-4" d="M913.6,149.9v376.9l75.4-358.7-75.4-18.2h0Z"/>
</svg>