<?xml version="1.0" encoding="UTF-8"?>
<svg id="svg1" xmlns="http://www.w3.org/2000/svg" viewBox="0 0 1780.14 599.44">
  <defs>
    <style>
      .cls-1 {
        fill: #f200f1;
      }

      .cls-1, .cls-2, .cls-3, .cls-4 {
        stroke-width: 0px;
      }

      .cls-2 {
        fill: #f2f200;
      }

      .cls-3 {
        fill: #00efef;
      }

      .cls-4 {
        fill: #fff;
      }
    </style>
  </defs>
  <path id="path3" class="cls-4" d="M289.2,141.92l-166.1,5.5,7.9,153.4,171.3-11.7,15.4,182.6-182.7-53.5s-.63,93-.63,93.1h224.31s-21.47-264-21.17-264.1c0,0-178.9-5.9-179.1-6-.5-.5-8.6-68.8-8.6-68.8l155.4,8.2c0-.2,23.5-38.7,23.5-38.7h-39.51,0Z"/>
  <path id="path4" class="cls-4" d="M378.69,511.32l-14.39-372.2,43.62,3.1s-14.36,139.1-13.03,135.3c1.33-3.7-1.6-8.1,1.6-3.5,3.28,4.6,20.21,242.38,20.21,242.38l-38.01-5.08h0Z"/>
  <path id="path5" class="cls-4" d="M548.9,150.62l14.4,360.7,43.85-4.23-25.35-365.27-32.9,8.7h0v.1h0Z"/>
  <path id="path6" class="cls-4" d="M619.2,140.82l21.27,364.81,248.63-5.01-5.8-60.1-210.5,22.4-23.3-319.4-30.3-2.7h0Z"/>
  <path id="path7" class="cls-4" d="M767.8,140.82c0,.2-83.3,267.7-83.3,267.7l60.4-.6,21.9-109.2,39.6-3c-.3,3.4,36.4,108.3,36.4,108.3l46.2-18.27s-121.3-244.83-121.3-245.03h0l.1.1h0Z"/>
  <path id="path7-8" class="cls-4" d="M1654.53,318.09l-132.96,180.55,44.36,5.25,33.5-67.6s38.4,4.4,38.1,6.2c-.2,1.8-1.4,57.9-1.4,57.9h27.6s-9.3-182.2-9.2-182.3h0Z"/>
  <path id="path8" class="cls-4" d="M889.1,137.04l14.33,190.05,120,12.5.5,127.1-106.85-24.81-.45,59.51,143.22-3.55-1.52-196.75-111.7-31-1.7-80.5,110.5-8.3-3.72-42.3-162.57-3.9-.04,1.95h0Z"/>
  <path id="path9" class="cls-4" d="M1134.43,507.59l-6.8-137.6,153.3,124.1-9.3-90.5-119.9-79.2,106.35-183.49-77.57-1.91-53.68,147.9s-3.24-138.36-3.54-147.9c-.2-.2-47.46-4.1-47.46-4.1v103.9h0l10,262.3,48.6,6.5"/>
  <path id="path11" class="cls-4" d="M1434.13,507.49l22-334.1-48.2-14.7-5.9,313.7-73.2-6,16.2-331.6-61.4,1.1h0v.1h0l15.83,361.23,134.67,10.27"/>
  <path id="path12" class="cls-4" d="M1286.43,186.19l169.7-12.8,4.2-44.9-176.7,7.4,2.9,50.3h-.1Z"/>
  <path id="path13" class="cls-4" d="M1460.33,503.09l23.3-367.7,56.4-2.9-36.25,182.95.1-.58-6.77,178.69-36.68,9.44h0l-.1.1h0Z"/>
  <path id="path14" class="cls-4" d="M1483.83,127.19l165.1-7.1,7.6,183.5-46.1-9.1,10.6-136.2-139,2.28,1.8-32.18h0v-1.2h0Z"/>
  <path id="path15" class="cls-4" d="M1651.13,273.29l5.4,30.4-165.5,12.11,4.1-45.41s160.8,3,156,3h0v-.1h0Z"/>
  <path id="path16" class="cls-4" d="M364.3,139.12l162,2.8-10.8,50.5-150.11-25-1.09-28.3h0Z"/>
  <path id="path17" class="cls-4" d="M373.1,343.98l152.5-9.96.27,27.55-152.61,9.41s-.16-27.1-.16-27h0Z"/>
  <path id="path18" class="cls-4" d="M485.2,148.12l-4.8,213.1,45.1-.7.8-218.6-41.1,6.1h0v.1h0Z"/>
  <path id="path19" class="cls-4" d="M404.67,173.97l4.13,173.29-35.7-3.27-4.54-188.13,33.36,5.54h0l2.75,12.57h0Z"/>
  <path id="path20" class="cls-1" d="M132.08,100.9l513.2-.6L153.78,0l-21.6,100.8h-.1v.1Z"/>
  <path id="path21" class="cls-3" d="M96.5,21.51l-.6,460.1L0,461.21,96.4,21.51h.1Z"/>
  <path id="path23" class="cls-3" d="M1691.43,149.27v443.43l88.71-422.02-88.71-21.41h0Z"/>
  <path id="path22" class="cls-2" d="M1666.88,533.84l-12.5,65.6-320.9-65.8,333.3.3h0l.1-.1Z"/>
</svg>