<?xml version="1.0" encoding="UTF-8"?>
<svg id="svg1" xmlns="http://www.w3.org/2000/svg" viewBox="0 0 1989.73 396.31">
  <defs>
    <style>
      .cls-1 {
        fill: #00f1f1;
      }

      .cls-1, .cls-2, .cls-3, .cls-4, .cls-5 {
        stroke-width: 0px;
      }

      .cls-2 {
        fill: #f2f200;
      }

      .cls-3 {
        fill: #00efef;
      }

      .cls-4 {
        fill: #fff;
      }

      .cls-5 {
        fill: #e80ae7;
      }
    </style>
  </defs>
  <g id="layer1">
    <path id="path10" class="cls-2" d="M354.23,235.37l19.73-74.76H75.89l278.34,74.76Z"/>
    <path id="path24" class="cls-3" d="M308.32,70.11L18.78,50.76l-5.12,77.22,294.85-57.87h-.19Z"/>
    <path id="path25" class="cls-5" d="M19.54,211.85l269.23,72.1H0s19.54-72.1,19.54-72.1Z"/>
    <path id="path26" class="cls-1" d="M85.19,366.67l279.67-63.75-2.85,74.19-276.82-10.44Z"/>
  </g>
  <path id="path3" class="cls-4" d="M615.2,21.83l-166.1,5.5,7.9,153.4,171.3-11.7,15.4,182.6-182.7-53.5s-.63,93-.63,93.1h224.31s-21.47-264-21.17-264.1c0,0-178.9-5.9-179.1-6-.5-.5-8.6-68.8-8.6-68.8l155.4,8.2c0-.2,23.5-38.7,23.5-38.7h-39.51Z"/>
  <path id="path4" class="cls-4" d="M704.69,391.23l-14.39-372.2,43.62,3.1s-14.36,139.1-13.03,135.3c1.33-3.7-1.6-8.1,1.6-3.5,3.28,4.6,20.21,242.38,20.21,242.38l-38.01-5.08h0Z"/>
  <path id="path5" class="cls-4" d="M874.9,30.53l14.4,360.7,43.85-4.23-25.35-365.27-32.9,8.7h0v.1Z"/>
  <path id="path6" class="cls-4" d="M945.2,20.73l21.27,364.81,248.63-5.01-5.8-60.1-210.5,22.4-23.3-319.4-30.3-2.7h0Z"/>
  <path id="path7" class="cls-4" d="M1093.8,20.73c0,.2-83.3,267.7-83.3,267.7l60.4-.6,21.9-109.2,39.6-3c-.3,3.4,36.4,108.3,36.4,108.3l46.2-18.27s-121.3-244.83-121.3-245.03h0l.1.1h0Z"/>
  <path id="path7-8" class="cls-4" d="M1980.53,198l-132.96,180.55,44.36,5.25,33.5-67.6s38.4,4.4,38.1,6.2c-.2,1.8-1.4,57.9-1.4,57.9h27.6s-9.3-182.2-9.2-182.3h0Z"/>
  <path id="path8" class="cls-4" d="M1215.1,16.95l14.33,190.05,120,12.5.5,127.1-106.85-24.81-.45,59.51,143.22-3.55-1.52-196.75-111.7-31-1.7-80.5,110.5-8.3-3.72-42.3-162.57-3.9-.04,1.95h0Z"/>
  <path id="path9" class="cls-4" d="M1460.43,387.5l-6.8-137.6,153.3,124.1-9.3-90.5-119.9-79.2,106.35-183.49-77.57-1.91-53.68,147.9s-3.24-138.36-3.54-147.9c-.2-.2-47.46-4.1-47.46-4.1v103.9h0l10,262.3,48.6,6.5"/>
  <path id="path11" class="cls-4" d="M1760.13,387.4l22-334.1-48.2-14.7-5.9,313.7-73.2-6,16.2-331.6-61.4,1.1h0v.1h0s15.83,361.23,15.83,361.23l134.67,10.27"/>
  <path id="path12" class="cls-4" d="M1612.43,66.1l169.7-12.8,4.2-44.9-176.7,7.4,2.9,50.3h-.1Z"/>
  <path id="path13" class="cls-4" d="M1786.33,383l23.3-367.7,56.4-2.9-36.25,182.95.1-.58-6.77,178.69-36.68,9.44h0l-.1.1h0Z"/>
  <path id="path14" class="cls-4" d="M1809.83,7.1l165.1-7.1,7.6,183.5-46.1-9.1,10.6-136.2-139,2.28,1.8-32.18h0v-1.2h0Z"/>
  <path id="path15" class="cls-4" d="M1977.13,153.2l5.4,30.4-165.5,12.11,4.1-45.41s160.8,3,156,3h0v-.1h0Z"/>
  <path id="path16" class="cls-4" d="M690.3,19.03l162,2.8-10.8,50.5-150.11-25-1.09-28.3h0Z"/>
  <path id="path17" class="cls-4" d="M699.1,223.89l152.5-9.96.27,27.55-152.61,9.41s-.16-27.1-.16-27h0Z"/>
  <path id="path18" class="cls-4" d="M811.2,28.03l-4.8,213.1,45.1-.7.8-218.6-41.1,6.1h0v.1h0Z"/>
  <path id="path19" class="cls-4" d="M730.67,53.88l4.13,173.29-35.7-3.27-4.54-188.13,33.36,5.54h0l2.75,12.57Z"/>
</svg>